<?xml version="1.0" encoding="UTF-8" standalone="no"?>
<!DOCTYPE svg PUBLIC "-//W3C//DTD SVG 1.1//EN"
 "http://www.w3.org/Graphics/SVG/1.1/DTD/svg11.dtd">
<!-- Generated by graphviz version 2.49.0 (20210828.1703)
 -->
<!-- Pages: 1 -->
<svg width="1008pt" height="678pt"
 viewBox="0.00 0.00 1008.00 678.30" xmlns="http://www.w3.org/2000/svg" xmlns:xlink="http://www.w3.org/1999/xlink">
<g id="graph0" class="graph" transform="scale(0.35 0.35) rotate(0) translate(4 1930.92)">
<polygon fill="white" stroke="transparent" points="-4,4 -4,-1930.92 2871.43,-1930.92 2871.43,4 -4,4"/>
<!-- $(go list &#45; m) -->
<g id="node1" class="node">
<title>$(go list &#45; m)</title>
<polygon fill="#e94762" stroke="transparent" points="1417,-1484 1267,-1484 1267,-1448 1417,-1448 1417,-1484"/>
<text text-anchor="middle" x="1342" y="-1459.8" font-family="Helvetica,sans-Serif" font-size="24.00">$(go list &#45; m)</text>
</g>
<!-- github.com/gin&#45;contrib/\nsse -->
<g id="node2" class="node">
<title>github.com/gin&#45;contrib/\nsse</title>
<text text-anchor="middle" x="1981.61" y="-648.25" font-family="Helvetica,sans-Serif" font-size="24.00">github.com/gin&#45;contrib/</text>
<text text-anchor="middle" x="1981.61" y="-622.25" font-family="Helvetica,sans-Serif" font-size="24.00">sse</text>
</g>
<!-- github.com/stretchr/\ntestify -->
<g id="node3" class="node">
<title>github.com/stretchr/\ntestify</title>
<text text-anchor="middle" x="2275.29" y="-519.75" font-family="Helvetica,sans-Serif" font-size="24.00">github.com/stretchr/</text>
<text text-anchor="middle" x="2275.29" y="-493.75" font-family="Helvetica,sans-Serif" font-size="24.00">testify</text>
</g>
<!-- github.com/gin&#45;contrib/\nsse&#45;&gt;github.com/stretchr/\ntestify -->
<g id="edge1" class="edge">
<title>github.com/gin&#45;contrib/\nsse&#45;&gt;github.com/stretchr/\ntestify</title>
<path fill="none" stroke="black" d="M2050.47,-611.32C2094.48,-592.06 2151.66,-567.04 2197.34,-547.06"/>
<polygon fill="black" stroke="black" points="2198.85,-550.22 2206.61,-543 2196.05,-543.8 2198.85,-550.22"/>
</g>
<!-- gopkg.in/yaml.v2 -->
<g id="node10" class="node">
<title>gopkg.in/yaml.v2</title>
<text text-anchor="middle" x="2239.06" y="-724.98" font-family="Helvetica,sans-Serif" font-size="24.00">gopkg.in/yaml.v2</text>
</g>
<!-- github.com/stretchr/\ntestify&#45;&gt;gopkg.in/yaml.v2 -->
<g id="edge27" class="edge">
<title>github.com/stretchr/\ntestify&#45;&gt;gopkg.in/yaml.v2</title>
<path fill="none" stroke="black" d="M2270.25,-543.29C2263.22,-585.63 2250.57,-661.86 2243.74,-703"/>
<polygon fill="black" stroke="black" points="2240.28,-702.47 2242.1,-712.91 2247.19,-703.61 2240.28,-702.47"/>
</g>
<!-- github.com/davecgh/\ngo&#45;spew -->
<g id="node17" class="node">
<title>github.com/davecgh/\ngo&#45;spew</title>
<text text-anchor="middle" x="2588.84" y="-775.02" font-family="Helvetica,sans-Serif" font-size="24.00">github.com/davecgh/</text>
<text text-anchor="middle" x="2588.84" y="-749.02" font-family="Helvetica,sans-Serif" font-size="24.00">go&#45;spew</text>
</g>
<!-- github.com/stretchr/\ntestify&#45;&gt;github.com/davecgh/\ngo&#45;spew -->
<g id="edge24" class="edge">
<title>github.com/stretchr/\ntestify&#45;&gt;github.com/davecgh/\ngo&#45;spew</title>
<path fill="none" stroke="black" d="M2312.18,-542.98C2369.81,-589.91 2481.06,-680.48 2543.5,-731.31"/>
<polygon fill="black" stroke="black" points="2541.64,-734.31 2551.61,-737.91 2546.06,-728.88 2541.64,-734.31"/>
</g>
<!-- github.com/pmezard/\ngo&#45;difflib -->
<g id="node22" class="node">
<title>github.com/pmezard/\ngo&#45;difflib</title>
<text text-anchor="middle" x="2400.6" y="-36.8" font-family="Helvetica,sans-Serif" font-size="24.00">github.com/pmezard/</text>
<text text-anchor="middle" x="2400.6" y="-10.8" font-family="Helvetica,sans-Serif" font-size="24.00">go&#45;difflib</text>
</g>
<!-- github.com/stretchr/\ntestify&#45;&gt;github.com/pmezard/\ngo&#45;difflib -->
<g id="edge25" class="edge">
<title>github.com/stretchr/\ntestify&#45;&gt;github.com/pmezard/\ngo&#45;difflib</title>
<path fill="none" stroke="black" d="M2283.13,-482.74C2304.84,-399.06 2365.77,-164.23 2390.24,-69.93"/>
<polygon fill="black" stroke="black" points="2393.64,-70.76 2392.77,-60.2 2386.87,-69 2393.64,-70.76"/>
</g>
<!-- github.com/stretchr/\nobjx -->
<g id="node23" class="node">
<title>github.com/stretchr/\nobjx</title>
<text text-anchor="middle" x="2664.46" y="-176.08" font-family="Helvetica,sans-Serif" font-size="24.00">github.com/stretchr/</text>
<text text-anchor="middle" x="2664.46" y="-150.08" font-family="Helvetica,sans-Serif" font-size="24.00">objx</text>
</g>
<!-- github.com/stretchr/\ntestify&#45;&gt;github.com/stretchr/\nobjx -->
<g id="edge26" class="edge">
<title>github.com/stretchr/\ntestify&#45;&gt;github.com/stretchr/\nobjx</title>
<path fill="none" stroke="black" d="M2309.49,-482.75C2380.85,-419.73 2545.44,-274.38 2622.82,-206.05"/>
<polygon fill="black" stroke="black" points="2625.3,-208.53 2630.48,-199.29 2620.67,-203.28 2625.3,-208.53"/>
</g>
<!-- github.com/gin&#45;gonic/\ngin -->
<g id="node4" class="node">
<title>github.com/gin&#45;gonic/\ngin</title>
<text text-anchor="middle" x="1891.01" y="-911.07" font-family="Helvetica,sans-Serif" font-size="24.00">github.com/gin&#45;gonic/</text>
<text text-anchor="middle" x="1891.01" y="-885.07" font-family="Helvetica,sans-Serif" font-size="24.00">gin</text>
</g>
<!-- github.com/gin&#45;gonic/\ngin&#45;&gt;github.com/gin&#45;contrib/\nsse -->
<g id="edge2" class="edge">
<title>github.com/gin&#45;gonic/\ngin&#45;&gt;github.com/gin&#45;contrib/\nsse</title>
<path fill="none" stroke="black" d="M1901.41,-874.12C1917.78,-826.62 1949.59,-734.33 1967.85,-681.38"/>
<polygon fill="black" stroke="black" points="1971.25,-682.25 1971.2,-671.65 1964.63,-679.96 1971.25,-682.25"/>
</g>
<!-- github.com/gin&#45;gonic/\ngin&#45;&gt;github.com/stretchr/\ntestify -->
<g id="edge7" class="edge">
<title>github.com/gin&#45;gonic/\ngin&#45;&gt;github.com/stretchr/\ntestify</title>
<path fill="none" stroke="black" d="M1920.53,-874.21C1989.82,-803.65 2162.77,-627.53 2238.64,-550.27"/>
<polygon fill="black" stroke="black" points="2241.16,-552.7 2245.67,-543.11 2236.17,-547.79 2241.16,-552.7"/>
</g>
<!-- github.com/go&#45;playground/\nvalidator/v10 -->
<g id="node5" class="node">
<title>github.com/go&#45;playground/\nvalidator/v10</title>
<text text-anchor="middle" x="1476.43" y="-608.25" font-family="Helvetica,sans-Serif" font-size="24.00">github.com/go&#45;playground/</text>
<text text-anchor="middle" x="1476.43" y="-582.25" font-family="Helvetica,sans-Serif" font-size="24.00">validator/v10</text>
</g>
<!-- github.com/gin&#45;gonic/\ngin&#45;&gt;github.com/go&#45;playground/\nvalidator/v10 -->
<g id="edge3" class="edge">
<title>github.com/gin&#45;gonic/\ngin&#45;&gt;github.com/go&#45;playground/\nvalidator/v10</title>
<path fill="none" stroke="black" d="M1849.75,-874.12C1772.92,-818.01 1608.28,-697.75 1525.74,-637.46"/>
<polygon fill="black" stroke="black" points="1527.67,-634.54 1517.53,-631.47 1523.54,-640.19 1527.67,-634.54"/>
</g>
<!-- github.com/golang/\nprotobuf -->
<g id="node6" class="node">
<title>github.com/golang/\nprotobuf</title>
<text text-anchor="middle" x="1791.91" y="-1227.84" font-family="Helvetica,sans-Serif" font-size="24.00">github.com/golang/</text>
<text text-anchor="middle" x="1791.91" y="-1201.84" font-family="Helvetica,sans-Serif" font-size="24.00">protobuf</text>
</g>
<!-- github.com/gin&#45;gonic/\ngin&#45;&gt;github.com/golang/\nprotobuf -->
<g id="edge4" class="edge">
<title>github.com/gin&#45;gonic/\ngin&#45;&gt;github.com/golang/\nprotobuf</title>
<path fill="none" stroke="black" d="M1881.6,-934.35C1863.67,-991.67 1824.6,-1116.54 1804.47,-1180.9"/>
<polygon fill="black" stroke="black" points="1801.05,-1180.1 1801.4,-1190.69 1807.73,-1182.19 1801.05,-1180.1"/>
</g>
<!-- github.com/json&#45;iterator/\ngo -->
<g id="node7" class="node">
<title>github.com/json&#45;iterator/\ngo</title>
<text text-anchor="middle" x="2263.75" y="-995.38" font-family="Helvetica,sans-Serif" font-size="24.00">github.com/json&#45;iterator/</text>
<text text-anchor="middle" x="2263.75" y="-969.38" font-family="Helvetica,sans-Serif" font-size="24.00">go</text>
</g>
<!-- github.com/gin&#45;gonic/\ngin&#45;&gt;github.com/json&#45;iterator/\ngo -->
<g id="edge5" class="edge">
<title>github.com/gin&#45;gonic/\ngin&#45;&gt;github.com/json&#45;iterator/\ngo</title>
<path fill="none" stroke="black" d="M2013.58,-931.99C2047.91,-939.76 2085.52,-948.27 2120.92,-956.27"/>
<polygon fill="black" stroke="black" points="2120.31,-959.72 2130.84,-958.52 2121.85,-952.9 2120.31,-959.72"/>
</g>
<!-- github.com/mattn/\ngo&#45;isatty -->
<g id="node8" class="node">
<title>github.com/mattn/\ngo&#45;isatty</title>
<text text-anchor="middle" x="1532.26" y="-1137.43" font-family="Helvetica,sans-Serif" font-size="24.00">github.com/mattn/</text>
<text text-anchor="middle" x="1532.26" y="-1111.43" font-family="Helvetica,sans-Serif" font-size="24.00">go&#45;isatty</text>
</g>
<!-- github.com/gin&#45;gonic/\ngin&#45;&gt;github.com/mattn/\ngo&#45;isatty -->
<g id="edge6" class="edge">
<title>github.com/gin&#45;gonic/\ngin&#45;&gt;github.com/mattn/\ngo&#45;isatty</title>
<path fill="none" stroke="black" d="M1843.37,-934.33C1777.48,-975.9 1658.73,-1050.83 1588.54,-1095.12"/>
<polygon fill="black" stroke="black" points="1586.4,-1092.33 1579.81,-1100.63 1590.13,-1098.25 1586.4,-1092.33"/>
</g>
<!-- github.com/ugorji/\ngo/codec -->
<g id="node9" class="node">
<title>github.com/ugorji/\ngo/codec</title>
<text text-anchor="middle" x="1665.5" y="-1427.15" font-family="Helvetica,sans-Serif" font-size="24.00">github.com/ugorji/</text>
<text text-anchor="middle" x="1665.5" y="-1401.15" font-family="Helvetica,sans-Serif" font-size="24.00">go/codec</text>
</g>
<!-- github.com/gin&#45;gonic/\ngin&#45;&gt;github.com/ugorji/\ngo/codec -->
<g id="edge8" class="edge">
<title>github.com/gin&#45;gonic/\ngin&#45;&gt;github.com/ugorji/\ngo/codec</title>
<path fill="none" stroke="black" d="M1877.75,-934.62C1839.05,-1023.18 1726.3,-1281.21 1682.86,-1380.64"/>
<polygon fill="black" stroke="black" points="1679.55,-1379.47 1678.75,-1390.03 1685.96,-1382.27 1679.55,-1379.47"/>
</g>
<!-- github.com/gin&#45;gonic/\ngin&#45;&gt;gopkg.in/yaml.v2 -->
<g id="edge9" class="edge">
<title>github.com/gin&#45;gonic/\ngin&#45;&gt;gopkg.in/yaml.v2</title>
<path fill="none" stroke="black" d="M1951.64,-874.12C2020.55,-839.85 2131.49,-784.68 2193.45,-753.86"/>
<polygon fill="black" stroke="black" points="2195.2,-756.9 2202.6,-749.31 2192.08,-750.63 2195.2,-756.9"/>
</g>
<!-- github.com/go&#45;playground/\nlocales -->
<g id="node11" class="node">
<title>github.com/go&#45;playground/\nlocales</title>
<text text-anchor="middle" x="1033.88" y="-652.93" font-family="Helvetica,sans-Serif" font-size="24.00">github.com/go&#45;playground/</text>
<text text-anchor="middle" x="1033.88" y="-626.93" font-family="Helvetica,sans-Serif" font-size="24.00">locales</text>
</g>
<!-- github.com/go&#45;playground/\nvalidator/v10&#45;&gt;github.com/go&#45;playground/\nlocales -->
<g id="edge13" class="edge">
<title>github.com/go&#45;playground/\nvalidator/v10&#45;&gt;github.com/go&#45;playground/\nlocales</title>
<path fill="none" stroke="black" d="M1325.68,-616.67C1283.47,-620.93 1237.44,-625.58 1194.68,-629.89"/>
<polygon fill="black" stroke="black" points="1194.06,-626.44 1184.46,-630.92 1194.76,-633.4 1194.06,-626.44"/>
</g>
<!-- github.com/go&#45;playground/\nuniversal&#45;translator -->
<g id="node13" class="node">
<title>github.com/go&#45;playground/\nuniversal&#45;translator</title>
<text text-anchor="middle" x="1342.91" y="-702.86" font-family="Helvetica,sans-Serif" font-size="24.00">github.com/go&#45;playground/</text>
<text text-anchor="middle" x="1342.91" y="-676.86" font-family="Helvetica,sans-Serif" font-size="24.00">universal&#45;translator</text>
</g>
<!-- github.com/go&#45;playground/\nvalidator/v10&#45;&gt;github.com/go&#45;playground/\nuniversal&#45;translator -->
<g id="edge14" class="edge">
<title>github.com/go&#45;playground/\nvalidator/v10&#45;&gt;github.com/go&#45;playground/\nuniversal&#45;translator</title>
<path fill="none" stroke="black" d="M1433.82,-631.64C1421.17,-640.61 1407.19,-650.51 1394.06,-659.82"/>
<polygon fill="black" stroke="black" points="1391.71,-657.19 1385.58,-665.83 1395.76,-662.9 1391.71,-657.19"/>
</g>
<!-- github.com/go&#45;playground/\nassert/v2 -->
<g id="node14" class="node">
<title>github.com/go&#45;playground/\nassert/v2</title>
<text text-anchor="middle" x="1234.59" y="-140.4" font-family="Helvetica,sans-Serif" font-size="24.00">github.com/go&#45;playground/</text>
<text text-anchor="middle" x="1234.59" y="-114.4" font-family="Helvetica,sans-Serif" font-size="24.00">assert/v2</text>
</g>
<!-- github.com/go&#45;playground/\nvalidator/v10&#45;&gt;github.com/go&#45;playground/\nassert/v2 -->
<g id="edge12" class="edge">
<title>github.com/go&#45;playground/\nvalidator/v10&#45;&gt;github.com/go&#45;playground/\nassert/v2</title>
<path fill="none" stroke="black" d="M1460.75,-571.11C1418.45,-489.28 1302.03,-264.06 1254.85,-172.79"/>
<polygon fill="black" stroke="black" points="1257.94,-171.15 1250.24,-163.87 1251.72,-174.36 1257.94,-171.15"/>
</g>
<!-- github.com/leodido/\ngo&#45;urn -->
<g id="node15" class="node">
<title>github.com/leodido/\ngo&#45;urn</title>
<text text-anchor="middle" x="1808.26" y="-495.04" font-family="Helvetica,sans-Serif" font-size="24.00">github.com/leodido/</text>
<text text-anchor="middle" x="1808.26" y="-469.04" font-family="Helvetica,sans-Serif" font-size="24.00">go&#45;urn</text>
</g>
<!-- github.com/go&#45;playground/\nvalidator/v10&#45;&gt;github.com/leodido/\ngo&#45;urn -->
<g id="edge15" class="edge">
<title>github.com/go&#45;playground/\nvalidator/v10&#45;&gt;github.com/leodido/\ngo&#45;urn</title>
<path fill="none" stroke="black" d="M1564.48,-571.41C1609.39,-556.09 1664.13,-537.41 1710.35,-521.64"/>
<polygon fill="black" stroke="black" points="1711.75,-524.87 1720.08,-518.33 1709.49,-518.24 1711.75,-524.87"/>
</g>
<!-- golang.org/x/crypto -->
<g id="node16" class="node">
<title>golang.org/x/crypto</title>
<text text-anchor="middle" x="1127.03" y="-890.37" font-family="Helvetica,sans-Serif" font-size="24.00">golang.org/x/crypto</text>
</g>
<!-- github.com/go&#45;playground/\nvalidator/v10&#45;&gt;golang.org/x/crypto -->
<g id="edge16" class="edge">
<title>github.com/go&#45;playground/\nvalidator/v10&#45;&gt;golang.org/x/crypto</title>
<path fill="none" stroke="black" d="M1440.68,-631.64C1371.3,-690.25 1219.61,-818.37 1156.01,-872.1"/>
<polygon fill="black" stroke="black" points="1153.72,-869.44 1148.34,-878.57 1158.24,-874.79 1153.72,-869.44"/>
</g>
<!-- github.com/json&#45;iterator/\ngo&#45;&gt;github.com/stretchr/\ntestify -->
<g id="edge21" class="edge">
<title>github.com/json&#45;iterator/\ngo&#45;&gt;github.com/stretchr/\ntestify</title>
<path fill="none" stroke="black" d="M2264.48,-958.47C2266.48,-876.08 2272.04,-646.9 2274.31,-553.43"/>
<polygon fill="black" stroke="black" points="2277.81,-553.32 2274.56,-543.24 2270.81,-553.15 2277.81,-553.32"/>
</g>
<!-- github.com/json&#45;iterator/\ngo&#45;&gt;github.com/davecgh/\ngo&#45;spew -->
<g id="edge17" class="edge">
<title>github.com/json&#45;iterator/\ngo&#45;&gt;github.com/davecgh/\ngo&#45;spew</title>
<path fill="none" stroke="black" d="M2308.27,-958.4C2367.56,-918.21 2472.31,-847.21 2535.68,-804.26"/>
<polygon fill="black" stroke="black" points="2538.03,-806.9 2544.34,-798.39 2534.1,-801.1 2538.03,-806.9"/>
</g>
<!-- github.com/google/\ngofuzz -->
<g id="node18" class="node">
<title>github.com/google/\ngofuzz</title>
<text text-anchor="middle" x="2698.75" y="-1292.61" font-family="Helvetica,sans-Serif" font-size="24.00">github.com/google/</text>
<text text-anchor="middle" x="2698.75" y="-1266.61" font-family="Helvetica,sans-Serif" font-size="24.00">gofuzz</text>
</g>
<!-- github.com/json&#45;iterator/\ngo&#45;&gt;github.com/google/\ngofuzz -->
<g id="edge18" class="edge">
<title>github.com/json&#45;iterator/\ngo&#45;&gt;github.com/google/\ngofuzz</title>
<path fill="none" stroke="black" d="M2307.86,-1018.72C2388.54,-1073.85 2559.58,-1190.71 2646.17,-1249.88"/>
<polygon fill="black" stroke="black" points="2644.3,-1252.84 2654.53,-1255.59 2648.25,-1247.06 2644.3,-1252.84"/>
</g>
<!-- github.com/modern&#45;go/\nconcurrent -->
<g id="node19" class="node">
<title>github.com/modern&#45;go/\nconcurrent</title>
<text text-anchor="middle" x="2081.25" y="-1135" font-family="Helvetica,sans-Serif" font-size="24.00">github.com/modern&#45;go/</text>
<text text-anchor="middle" x="2081.25" y="-1109" font-family="Helvetica,sans-Serif" font-size="24.00">concurrent</text>
</g>
<!-- github.com/json&#45;iterator/\ngo&#45;&gt;github.com/modern&#45;go/\nconcurrent -->
<g id="edge19" class="edge">
<title>github.com/json&#45;iterator/\ngo&#45;&gt;github.com/modern&#45;go/\nconcurrent</title>
<path fill="none" stroke="black" d="M2224.15,-1018.88C2196.17,-1040.28 2158.53,-1069.08 2128.9,-1091.74"/>
<polygon fill="black" stroke="black" points="2126.59,-1089.11 2120.77,-1097.96 2130.84,-1094.67 2126.59,-1089.11"/>
</g>
<!-- github.com/modern&#45;go/\nreflect2 -->
<g id="node20" class="node">
<title>github.com/modern&#45;go/\nreflect2</title>
<text text-anchor="middle" x="2073.47" y="-1296.42" font-family="Helvetica,sans-Serif" font-size="24.00">github.com/modern&#45;go/</text>
<text text-anchor="middle" x="2073.47" y="-1270.42" font-family="Helvetica,sans-Serif" font-size="24.00">reflect2</text>
</g>
<!-- github.com/json&#45;iterator/\ngo&#45;&gt;github.com/modern&#45;go/\nreflect2 -->
<g id="edge20" class="edge">
<title>github.com/json&#45;iterator/\ngo&#45;&gt;github.com/modern&#45;go/\nreflect2</title>
<path fill="none" stroke="black" d="M2244.64,-1018.82C2209.87,-1073.82 2136.36,-1190.13 2097.98,-1250.86"/>
<polygon fill="black" stroke="black" points="2094.96,-1249.08 2092.58,-1259.4 2100.88,-1252.82 2094.96,-1249.08"/>
</g>
<!-- golang.org/x/sys -->
<g id="node21" class="node">
<title>golang.org/x/sys</title>
<text text-anchor="middle" x="1284.73" y="-1135.42" font-family="Helvetica,sans-Serif" font-size="24.00">golang.org/x/sys</text>
</g>
<!-- github.com/mattn/\ngo&#45;isatty&#45;&gt;golang.org/x/sys -->
<g id="edge23" class="edge">
<title>github.com/mattn/\ngo&#45;isatty&#45;&gt;golang.org/x/sys</title>
<path fill="none" stroke="black" d="M1428.72,-1135.23C1416.07,-1135.79 1403.13,-1136.36 1390.45,-1136.93"/>
<polygon fill="black" stroke="black" points="1390.18,-1133.44 1380.35,-1137.38 1390.49,-1140.43 1390.18,-1133.44"/>
</g>
<!-- github.com/ugorji/\ngo -->
<g id="node24" class="node">
<title>github.com/ugorji/\ngo</title>
<text text-anchor="middle" x="1520.62" y="-1903.72" font-family="Helvetica,sans-Serif" font-size="24.00">github.com/ugorji/</text>
<text text-anchor="middle" x="1520.62" y="-1877.72" font-family="Helvetica,sans-Serif" font-size="24.00">go</text>
</g>
<!-- github.com/ugorji/\ngo/codec&#45;&gt;github.com/ugorji/\ngo -->
<g id="edge29" class="edge">
<title>github.com/ugorji/\ngo/codec&#45;&gt;github.com/ugorji/\ngo</title>
<path fill="none" stroke="black" d="M1652.59,-1450.58C1623.12,-1533.31 1553.05,-1763.38 1528.74,-1856.77"/>
<polygon fill="black" stroke="black" points="1525.29,-1856.12 1526.2,-1866.68 1532.07,-1857.86 1525.29,-1856.12"/>
</g>
<!-- gopkg.in/check.v1 -->
<g id="node27" class="node">
<title>gopkg.in/check.v1</title>
<text text-anchor="middle" x="2762.93" y="-580.31" font-family="Helvetica,sans-Serif" font-size="24.00">gopkg.in/check.v1</text>
</g>
<!-- gopkg.in/yaml.v2&#45;&gt;gopkg.in/check.v1 -->
<g id="edge35" class="edge">
<title>gopkg.in/yaml.v2&#45;&gt;gopkg.in/check.v1</title>
<path fill="none" stroke="black" d="M2304.35,-713.15C2401.87,-686.22 2585.08,-635.62 2687.95,-607.21"/>
<polygon fill="black" stroke="black" points="2688.94,-610.57 2697.65,-604.54 2687.07,-603.82 2688.94,-610.57"/>
</g>
<!-- golang.org/x/text -->
<g id="node12" class="node">
<title>golang.org/x/text</title>
<text text-anchor="middle" x="494.52" y="-576.61" font-family="Helvetica,sans-Serif" font-size="24.00">golang.org/x/text</text>
</g>
<!-- github.com/go&#45;playground/\nlocales&#45;&gt;golang.org/x/text -->
<g id="edge10" class="edge">
<title>github.com/go&#45;playground/\nlocales&#45;&gt;golang.org/x/text</title>
<path fill="none" stroke="black" d="M883.28,-628.45C793.76,-617.94 682.34,-604.86 601.76,-595.4"/>
<polygon fill="black" stroke="black" points="601.93,-591.9 591.6,-594.21 601.12,-598.85 601.93,-591.9"/>
</g>
<!-- golang.org/x/tools -->
<g id="node26" class="node">
<title>golang.org/x/tools</title>
<text text-anchor="middle" x="103" y="-470.29" font-family="Helvetica,sans-Serif" font-size="24.00">golang.org/x/tools</text>
</g>
<!-- golang.org/x/text&#45;&gt;golang.org/x/tools -->
<g id="edge34" class="edge">
<title>golang.org/x/text&#45;&gt;golang.org/x/tools</title>
<path fill="none" stroke="black" d="M428.11,-564.78C359.24,-546.08 251.72,-516.88 179.38,-497.24"/>
<polygon fill="black" stroke="black" points="179.98,-493.77 169.41,-494.53 178.15,-500.53 179.98,-493.77"/>
</g>
<!-- github.com/go&#45;playground/\nuniversal&#45;translator&#45;&gt;github.com/go&#45;playground/\nlocales -->
<g id="edge11" class="edge">
<title>github.com/go&#45;playground/\nuniversal&#45;translator&#45;&gt;github.com/go&#45;playground/\nlocales</title>
<path fill="none" stroke="black" d="M1192.01,-671.68C1191.86,-671.66 1191.71,-671.63 1191.55,-671.61"/>
<polygon fill="black" stroke="black" points="1195.09,-668.63 1184.66,-670.49 1193.97,-675.54 1195.09,-668.63"/>
</g>
<!-- github.com/leodido/\ngo&#45;urn&#45;&gt;github.com/stretchr/\ntestify -->
<g id="edge22" class="edge">
<title>github.com/leodido/\ngo&#45;urn&#45;&gt;github.com/stretchr/\ntestify</title>
<path fill="none" stroke="black" d="M1921.01,-494.21C1990.48,-497.88 2079.62,-502.6 2151.1,-506.38"/>
<polygon fill="black" stroke="black" points="2151.34,-509.9 2161.52,-506.93 2151.71,-502.91 2151.34,-509.9"/>
</g>
<!-- golang.org/x/crypto&#45;&gt;golang.org/x/sys -->
<g id="edge31" class="edge">
<title>golang.org/x/crypto&#45;&gt;golang.org/x/sys</title>
<path fill="none" stroke="black" d="M1138.63,-914.59C1166.08,-957.25 1235.17,-1064.62 1267.52,-1114.88"/>
<polygon fill="black" stroke="black" points="1264.76,-1117.06 1273.11,-1123.58 1270.64,-1113.27 1264.76,-1117.06"/>
</g>
<!-- golang.org/x/net -->
<g id="node25" class="node">
<title>golang.org/x/net</title>
<text text-anchor="middle" x="615.78" y="-845.22" font-family="Helvetica,sans-Serif" font-size="24.00">golang.org/x/net</text>
</g>
<!-- golang.org/x/crypto&#45;&gt;golang.org/x/net -->
<g id="edge30" class="edge">
<title>golang.org/x/crypto&#45;&gt;golang.org/x/net</title>
<path fill="none" stroke="black" d="M1016.28,-881.09C928.53,-871.87 806.79,-861.16 720.61,-855.09"/>
<polygon fill="black" stroke="black" points="720.77,-851.59 710.55,-854.39 720.28,-858.58 720.77,-851.59"/>
</g>
<!-- github.com/ugorji/\ngo&#45;&gt;github.com/ugorji/\ngo/codec -->
<g id="edge28" class="edge">
<title>github.com/ugorji/\ngo&#45;&gt;github.com/ugorji/\ngo/codec</title>
<path fill="none" stroke="black" d="M1533.53,-1866.69C1563,-1783.96 1633.07,-1553.89 1657.38,-1460.51"/>
<polygon fill="black" stroke="black" points="1660.83,-1461.15 1659.92,-1450.59 1654.05,-1459.41 1660.83,-1461.15"/>
</g>
<!-- golang.org/x/net&#45;&gt;golang.org/x/text -->
<g id="edge33" class="edge">
<title>golang.org/x/net&#45;&gt;golang.org/x/text</title>
<path fill="none" stroke="black" d="M607.63,-833.38C586.84,-787.33 531.71,-665.2 506.92,-610.27"/>
<polygon fill="black" stroke="black" points="510.1,-608.8 502.79,-601.13 503.72,-611.68 510.1,-608.8"/>
</g>
<!-- golang.org/x/net&#45;&gt;golang.org/x/crypto -->
<g id="edge32" class="edge">
<title>golang.org/x/net&#45;&gt;golang.org/x/crypto</title>
<path fill="none" stroke="black" d="M710.57,-865.2C793.96,-874.23 915.81,-885.13 1006.18,-891.75"/>
<polygon fill="black" stroke="black" points="1005.98,-895.24 1016.21,-892.48 1006.49,-888.26 1005.98,-895.24"/>
</g>
<!-- l&#45;gin/chapter1 -->
<g id="node28" class="node">
<title>l&#45;gin/chapter1</title>
<text text-anchor="middle" x="1679.48" y="-912.21" font-family="Helvetica,sans-Serif" font-size="24.00">l&#45;gin/chapter1</text>
</g>
<!-- l&#45;gin/chapter1&#45;&gt;github.com/gin&#45;contrib/\nsse -->
<g id="edge36" class="edge">
<title>l&#45;gin/chapter1&#45;&gt;github.com/gin&#45;contrib/\nsse</title>
<path fill="none" stroke="black" d="M1699.31,-900.24C1748.13,-855.48 1874.96,-739.22 1940.72,-678.93"/>
<polygon fill="black" stroke="black" points="1943.43,-681.2 1948.43,-671.86 1938.7,-676.04 1943.43,-681.2"/>
</g>
<!-- l&#45;gin/chapter1&#45;&gt;github.com/gin&#45;gonic/\ngin -->
<g id="edge37" class="edge">
<title>l&#45;gin/chapter1&#45;&gt;github.com/gin&#45;gonic/\ngin</title>
<path fill="none" stroke="black" d="M1760.66,-912.98C1760.82,-912.97 1760.98,-912.96 1761.14,-912.95"/>
<polygon fill="black" stroke="black" points="1758.66,-916.62 1768.4,-912.46 1758.19,-909.64 1758.66,-916.62"/>
</g>
<!-- l&#45;gin/chapter1&#45;&gt;github.com/go&#45;playground/\nvalidator/v10 -->
<g id="edge40" class="edge">
<title>l&#45;gin/chapter1&#45;&gt;github.com/go&#45;playground/\nvalidator/v10</title>
<path fill="none" stroke="black" d="M1667.69,-900C1635.53,-849.8 1545.78,-709.7 1501.62,-640.77"/>
<polygon fill="black" stroke="black" points="1504.3,-638.46 1495.96,-631.93 1498.41,-642.24 1504.3,-638.46"/>
</g>
<!-- l&#45;gin/chapter1&#45;&gt;github.com/golang/\nprotobuf -->
<g id="edge41" class="edge">
<title>l&#45;gin/chapter1&#45;&gt;github.com/golang/\nprotobuf</title>
<path fill="none" stroke="black" d="M1686.18,-936.43C1703.89,-984.12 1752.32,-1114.48 1777.01,-1180.94"/>
<polygon fill="black" stroke="black" points="1773.86,-1182.49 1780.62,-1190.65 1780.42,-1180.05 1773.86,-1182.49"/>
</g>
<!-- l&#45;gin/chapter1&#45;&gt;github.com/json&#45;iterator/\ngo -->
<g id="edge42" class="edge">
<title>l&#45;gin/chapter1&#45;&gt;github.com/json&#45;iterator/\ngo</title>
<path fill="none" stroke="black" d="M1760.72,-928.17C1852.49,-939.19 2003.71,-957.35 2116.43,-970.89"/>
<polygon fill="black" stroke="black" points="2116.18,-974.38 2126.52,-972.1 2117.01,-967.43 2116.18,-974.38"/>
</g>
<!-- l&#45;gin/chapter1&#45;&gt;github.com/mattn/\ngo&#45;isatty -->
<g id="edge44" class="edge">
<title>l&#45;gin/chapter1&#45;&gt;github.com/mattn/\ngo&#45;isatty</title>
<path fill="none" stroke="black" d="M1666.93,-936.5C1643.1,-970.85 1590.85,-1046.18 1558.89,-1092.25"/>
<polygon fill="black" stroke="black" points="1555.99,-1090.28 1553.17,-1100.49 1561.74,-1094.27 1555.99,-1090.28"/>
</g>
<!-- l&#45;gin/chapter1&#45;&gt;github.com/ugorji/\ngo/codec -->
<g id="edge47" class="edge">
<title>l&#45;gin/chapter1&#45;&gt;github.com/ugorji/\ngo/codec</title>
<path fill="none" stroke="black" d="M1678.98,-936.57C1676.96,-1008.88 1669.48,-1277.38 1666.62,-1380.06"/>
<polygon fill="black" stroke="black" points="1663.12,-1380.23 1666.34,-1390.32 1670.12,-1380.43 1663.12,-1380.23"/>
</g>
<!-- l&#45;gin/chapter1&#45;&gt;gopkg.in/yaml.v2 -->
<g id="edge50" class="edge">
<title>l&#45;gin/chapter1&#45;&gt;gopkg.in/yaml.v2</title>
<path fill="none" stroke="black" d="M1733.39,-900.37C1837.22,-865.63 2064.48,-789.59 2175.49,-752.45"/>
<polygon fill="black" stroke="black" points="2176.85,-755.69 2185.22,-749.19 2174.63,-749.05 2176.85,-755.69"/>
</g>
<!-- l&#45;gin/chapter1&#45;&gt;github.com/go&#45;playground/\nlocales -->
<g id="edge38" class="edge">
<title>l&#45;gin/chapter1&#45;&gt;github.com/go&#45;playground/\nlocales</title>
<path fill="none" stroke="black" d="M1636.62,-900.33C1530.22,-855.46 1252.63,-738.39 1114.45,-680.11"/>
<polygon fill="black" stroke="black" points="1115.72,-676.85 1105.15,-676.19 1113,-683.3 1115.72,-676.85"/>
</g>
<!-- l&#45;gin/chapter1&#45;&gt;github.com/go&#45;playground/\nuniversal&#45;translator -->
<g id="edge39" class="edge">
<title>l&#45;gin/chapter1&#45;&gt;github.com/go&#45;playground/\nuniversal&#45;translator</title>
<path fill="none" stroke="black" d="M1652.22,-900.4C1596.81,-863.79 1470.09,-780.08 1397.2,-731.93"/>
<polygon fill="black" stroke="black" points="1398.86,-728.83 1388.59,-726.24 1395,-734.67 1398.86,-728.83"/>
</g>
<!-- l&#45;gin/chapter1&#45;&gt;github.com/leodido/\ngo&#45;urn -->
<g id="edge43" class="edge">
<title>l&#45;gin/chapter1&#45;&gt;github.com/leodido/\ngo&#45;urn</title>
<path fill="none" stroke="black" d="M1684.93,-900.2C1704.2,-835.85 1769.36,-618.17 1796.37,-527.94"/>
<polygon fill="black" stroke="black" points="1799.73,-528.93 1799.25,-518.34 1793.02,-526.92 1799.73,-528.93"/>
</g>
<!-- l&#45;gin/chapter1&#45;&gt;golang.org/x/crypto -->
<g id="edge48" class="edge">
<title>l&#45;gin/chapter1&#45;&gt;golang.org/x/crypto</title>
<path fill="none" stroke="black" d="M1598.26,-915.2C1505.87,-911.55 1354.06,-905.55 1247.78,-901.35"/>
<polygon fill="black" stroke="black" points="1247.78,-897.84 1237.64,-900.95 1247.5,-904.84 1247.78,-897.84"/>
</g>
<!-- l&#45;gin/chapter1&#45;&gt;github.com/modern&#45;go/\nconcurrent -->
<g id="edge45" class="edge">
<title>l&#45;gin/chapter1&#45;&gt;github.com/modern&#45;go/\nconcurrent</title>
<path fill="none" stroke="black" d="M1714.08,-936.48C1780.82,-971.32 1928.32,-1048.34 2014.68,-1093.44"/>
<polygon fill="black" stroke="black" points="2013.13,-1096.58 2023.62,-1098.1 2016.37,-1090.37 2013.13,-1096.58"/>
</g>
<!-- l&#45;gin/chapter1&#45;&gt;github.com/modern&#45;go/\nreflect2 -->
<g id="edge46" class="edge">
<title>l&#45;gin/chapter1&#45;&gt;github.com/modern&#45;go/\nreflect2</title>
<path fill="none" stroke="black" d="M1698.75,-936.57C1759.95,-994.23 1950.76,-1174.01 2033.99,-1252.42"/>
<polygon fill="black" stroke="black" points="2031.79,-1255.15 2041.46,-1259.46 2036.59,-1250.06 2031.79,-1255.15"/>
</g>
<!-- l&#45;gin/chapter1&#45;&gt;golang.org/x/sys -->
<g id="edge49" class="edge">
<title>l&#45;gin/chapter1&#45;&gt;golang.org/x/sys</title>
<path fill="none" stroke="black" d="M1647.51,-936.49C1576.34,-976.73 1404.91,-1073.67 1325.88,-1118.35"/>
<polygon fill="black" stroke="black" points="1323.7,-1115.56 1316.72,-1123.53 1327.15,-1121.66 1323.7,-1115.56"/>
</g>
</g>
</svg>
